<svg viewBox="0 0 67 67" fill="currentColor" xmlns="http://www.w3.org/2000/svg">
<path d="M58.6237 13.958V11.1663H55.832V8.37467H53.0404V5.58301H13.957V8.37467H11.1654V11.1663H8.3737V13.958H5.58203V53.0413H8.3737V55.833H11.1654V58.6247H13.957V61.4163H53.0404V58.6247H55.832V55.833H58.6237V53.0413H61.4154V13.958H58.6237ZM55.832 47.458H47.457V41.8747H41.8737V36.2913H36.2904V30.708H30.707V25.1247H25.1237V19.5413H19.5404V11.1663H47.457V13.958H50.2487V16.7497H53.0404V19.5413H55.832V47.458ZM16.7487 53.0413V50.2497H13.957V47.458H11.1654V19.5413H13.957V25.1247H19.5404V30.708H25.1237V36.2913H30.707V41.8747H36.2904V47.458H41.8737V53.0413H47.457V55.833H19.5404V53.0413H16.7487Z"/>
</svg>
